<svg width="29" height="28" viewBox="0 0 29 28" fill="none" xmlns="http://www.w3.org/2000/svg">
<path d="M8.66675 21.432V22.732C8.66675 23.0768 8.80371 23.4075 9.04751 23.6513C9.29131 23.8951 9.62197 24.032 9.96675 24.032H20.3667C20.7115 24.032 21.0422 23.8951 21.286 23.6513C21.5298 23.4075 21.6667 23.0768 21.6667 22.732V21.432C21.6667 20.3977 21.2559 19.4057 20.5245 18.6743C19.7931 17.9429 18.8011 17.532 17.7667 17.532H12.5667C11.5324 17.532 10.5404 17.9429 9.80903 18.6743C9.07764 19.4057 8.66675 20.3977 8.66675 21.432ZM19.0667 9.73203C19.0667 10.7664 18.6559 11.7584 17.9245 12.4897C17.1931 13.2211 16.2011 13.632 15.1667 13.632C14.1324 13.632 13.1404 13.2211 12.409 12.4897C11.6776 11.7584 11.2667 10.7664 11.2667 9.73203C11.2667 8.69769 11.6776 7.70571 12.409 6.97431C13.1404 6.24292 14.1324 5.83203 15.1667 5.83203C16.2011 5.83203 17.1931 6.24292 17.9245 6.97431C18.6559 7.70571 19.0667 8.69769 19.0667 9.73203Z" stroke="#D9D9D9" stroke-width="2"/>
</svg>
